<svg id="visual" viewBox="0 0 900 600" width="900" height="600" xmlns="http://www.w3.org/2000/svg" xmlns:xlink="http://www.w3.org/1999/xlink" version="1.1"><rect x="0" y="0" width="900" height="600" fill="#fff"></rect><path d="M0 67L13.7 63.3C27.3 59.7 54.7 52.3 82 48.2C109.3 44 136.7 43 163.8 43C191 43 218 44 245.2 47C272.3 50 299.7 55 327 55.5C354.3 56 381.7 52 409 53C436.3 54 463.7 60 491 64.3C518.3 68.7 545.7 71.3 573 67.8C600.3 64.3 627.7 54.7 654.8 50.7C682 46.7 709 48.3 736.2 49.8C763.3 51.3 790.7 52.7 818 57C845.3 61.3 872.7 68.7 886.3 72.3L900 76L900 0L886.3 0C872.7 0 845.3 0 818 0C790.7 0 763.3 0 736.2 0C709 0 682 0 654.8 0C627.7 0 600.3 0 573 0C545.7 0 518.3 0 491 0C463.7 0 436.3 0 409 0C381.7 0 354.3 0 327 0C299.7 0 272.3 0 245.2 0C218 0 191 0 163.8 0C136.7 0 109.3 0 82 0C54.7 0 27.3 0 13.7 0L0 0Z" fill="#001220" stroke-linecap="round" stroke-linejoin="miter"></path></svg>