<svg id="visual" viewBox="0 0 900 600" width="900" height="600" xmlns="http://www.w3.org/2000/svg" xmlns:xlink="http://www.w3.org/1999/xlink" version="1.1"><rect x="0" y="0" width="900" height="600" fill="#001220"></rect><path d="M0 435L21.5 430.7C43 426.3 86 417.7 128.8 404.7C171.7 391.7 214.3 374.3 257.2 373.7C300 373 343 389 385.8 392C428.7 395 471.3 385 514.2 386C557 387 600 399 642.8 403.2C685.7 407.3 728.3 403.7 771.2 401.5C814 399.3 857 398.7 878.5 398.3L900 398L900 601L878.5 601C857 601 814 601 771.2 601C728.3 601 685.7 601 642.8 601C600 601 557 601 514.2 601C471.3 601 428.7 601 385.8 601C343 601 300 601 257.2 601C214.3 601 171.7 601 128.8 601C86 601 43 601 21.5 601L0 601Z" fill="#1d3258"></path><path d="M0 418L21.5 427C43 436 86 454 128.8 451.5C171.7 449 214.3 426 257.2 426.5C300 427 343 451 385.8 459.5C428.7 468 471.3 461 514.2 451.3C557 441.7 600 429.3 642.8 425C685.7 420.7 728.3 424.3 771.2 433.3C814 442.3 857 456.7 878.5 463.8L900 471L900 601L878.5 601C857 601 814 601 771.2 601C728.3 601 685.7 601 642.8 601C600 601 557 601 514.2 601C471.3 601 428.7 601 385.8 601C343 601 300 601 257.2 601C214.3 601 171.7 601 128.8 601C86 601 43 601 21.5 601L0 601Z" fill="#405379"></path><path d="M0 479L21.5 478.2C43 477.3 86 475.7 128.8 477C171.7 478.3 214.3 482.7 257.2 477.3C300 472 343 457 385.8 457.3C428.7 457.7 471.3 473.3 514.2 484.8C557 496.3 600 503.7 642.8 499.3C685.7 495 728.3 479 771.2 475.3C814 471.7 857 480.3 878.5 484.7L900 489L900 601L878.5 601C857 601 814 601 771.2 601C728.3 601 685.7 601 642.8 601C600 601 557 601 514.2 601C471.3 601 428.7 601 385.8 601C343 601 300 601 257.2 601C214.3 601 171.7 601 128.8 601C86 601 43 601 21.5 601L0 601Z" fill="#64769b"></path><path d="M0 485L21.5 491.2C43 497.3 86 509.7 128.8 511.8C171.7 514 214.3 506 257.2 500.5C300 495 343 492 385.8 492C428.7 492 471.3 495 514.2 503.3C557 511.7 600 525.3 642.8 530.5C685.7 535.7 728.3 532.3 771.2 530C814 527.7 857 526.3 878.5 525.7L900 525L900 601L878.5 601C857 601 814 601 771.2 601C728.3 601 685.7 601 642.8 601C600 601 557 601 514.2 601C471.3 601 428.7 601 385.8 601C343 601 300 601 257.2 601C214.3 601 171.7 601 128.8 601C86 601 43 601 21.5 601L0 601Z" fill="#899cbf"></path><path d="M0 545L21.5 543.8C43 542.7 86 540.3 128.8 537.7C171.7 535 214.3 532 257.2 538C300 544 343 559 385.8 565.7C428.7 572.3 471.3 570.7 514.2 562.3C557 554 600 539 642.8 539.5C685.7 540 728.3 556 771.2 564.2C814 572.3 857 572.7 878.5 572.8L900 573L900 601L878.5 601C857 601 814 601 771.2 601C728.3 601 685.7 601 642.8 601C600 601 557 601 514.2 601C471.3 601 428.7 601 385.8 601C343 601 300 601 257.2 601C214.3 601 171.7 601 128.8 601C86 601 43 601 21.5 601L0 601Z" fill="#afc3e4"></path></svg>