<svg id="visual" viewBox="0 0 900 600" width="900" height="600" xmlns="http://www.w3.org/2000/svg" xmlns:xlink="http://www.w3.org/1999/xlink" version="1.1"><rect x="0" y="0" width="900" height="600" fill="#ffffff"></rect><path d="M0 74L21.5 66.8C43 59.7 86 45.3 128.8 46.7C171.7 48 214.3 65 257.2 72.5C300 80 343 78 385.8 75.7C428.7 73.3 471.3 70.7 514.2 63.8C557 57 600 46 642.8 49.3C685.7 52.7 728.3 70.3 771.2 71.2C814 72 857 56 878.5 48L900 40L900 0L878.5 0C857 0 814 0 771.2 0C728.3 0 685.7 0 642.8 0C600 0 557 0 514.2 0C471.3 0 428.7 0 385.8 0C343 0 300 0 257.2 0C214.3 0 171.7 0 128.8 0C86 0 43 0 21.5 0L0 0Z" fill="#001220" stroke-linecap="round" stroke-linejoin="miter"></path></svg>