<svg id="visual" viewBox="0 0 900 600" width="900" height="600" xmlns="http://www.w3.org/2000/svg" xmlns:xlink="http://www.w3.org/1999/xlink" version="1.1"><rect x="0" y="0" width="900" height="600" fill="#ffffff"></rect><path d="M0 367L18.8 390C37.7 413 75.3 459 112.8 463C150.3 467 187.7 429 225.2 408.5C262.7 388 300.3 385 337.8 406.8C375.3 428.7 412.7 475.3 450.2 486C487.7 496.7 525.3 471.3 562.8 465.8C600.3 460.3 637.7 474.7 675.2 463C712.7 451.3 750.3 413.7 787.8 410.7C825.3 407.7 862.7 439.3 881.3 455.2L900 471L900 601L881.3 601C862.7 601 825.3 601 787.8 601C750.3 601 712.7 601 675.2 601C637.7 601 600.3 601 562.8 601C525.3 601 487.7 601 450.2 601C412.7 601 375.3 601 337.8 601C300.3 601 262.7 601 225.2 601C187.7 601 150.3 601 112.8 601C75.3 601 37.7 601 18.8 601L0 601Z" fill="#001220"></path></svg>